<mxfile host="Electron" modified="2024-02-09T16:43:33.544Z" agent="Mozilla/5.0 (Windows NT 10.0; Win64; x64) AppleWebKit/537.36 (KHTML, like Gecko) draw.io/22.1.16 Chrome/120.0.6099.109 Electron/28.1.0 Safari/537.36" etag="ZNYWjMn7sryRbHC8jXie" version="22.1.16" type="device">
  <diagram name="Page-1" id="ew7vi9b7o_5ddHdVxSJt">
    <mxGraphModel dx="1680" dy="1150" grid="1" gridSize="10" guides="1" tooltips="1" connect="1" arrows="1" fold="1" page="1" pageScale="1" pageWidth="850" pageHeight="1100" math="0" shadow="0">
      <root>
        <mxCell id="0" />
        <mxCell id="1" parent="0" />
        <mxCell id="trYssVs36Saq6DxaFjGx-107" value="" style="group;fillColor=#232136;strokeColor=#232136;strokeWidth=25;fontSize=14;" parent="1" vertex="1" connectable="0">
          <mxGeometry x="590" y="240" width="1016" height="260" as="geometry" />
        </mxCell>
        <mxCell id="trYssVs36Saq6DxaFjGx-66" value="Parse Location&lt;br style=&quot;font-size: 15px;&quot;&gt;Information" style="rounded=1;whiteSpace=wrap;html=1;absoluteArcSize=1;arcSize=50;strokeWidth=3;strokeColor=#DB918D;fontFamily=Helvetica;fontSize=15;fontColor=#FFFFFF;fillColor=none;fontStyle=0;labelBackgroundColor=none;container=0;" parent="trYssVs36Saq6DxaFjGx-107" vertex="1">
          <mxGeometry x="628.25" y="10" width="121.75" height="40" as="geometry" />
        </mxCell>
        <mxCell id="trYssVs36Saq6DxaFjGx-68" value="Locations &lt;br&gt;Exists?" style="strokeWidth=3;html=1;shape=mxgraph.flowchart.decision;whiteSpace=wrap;strokeColor=#DB918D;fontFamily=Helvetica;fontSize=12;fontColor=#FFFFFF;fillColor=none;rounded=1;arcSize=50;fontStyle=0;labelBackgroundColor=none;container=0;" parent="trYssVs36Saq6DxaFjGx-107" vertex="1">
          <mxGeometry x="485.0983606557377" width="104.0983606557377" height="60" as="geometry" />
        </mxCell>
        <mxCell id="trYssVs36Saq6DxaFjGx-64" value="" style="edgeStyle=orthogonalEdgeStyle;shape=connector;rounded=1;orthogonalLoop=1;jettySize=auto;html=1;labelBackgroundColor=default;strokeColor=#DB918D;strokeWidth=3;fontFamily=Helvetica;fontSize=12;fontColor=#FFFFFF;endArrow=openThin;fillColor=#ffffff;arcSize=50;fontStyle=0;startArrow=none;startFill=0;endFill=0;" parent="trYssVs36Saq6DxaFjGx-107" source="trYssVs36Saq6DxaFjGx-68" target="trYssVs36Saq6DxaFjGx-66" edge="1">
          <mxGeometry relative="1" as="geometry">
            <Array as="points">
              <mxPoint x="651.655737704918" y="30" />
            </Array>
          </mxGeometry>
        </mxCell>
        <mxCell id="trYssVs36Saq6DxaFjGx-69" value="" style="edgeStyle=orthogonalEdgeStyle;shape=connector;rounded=1;orthogonalLoop=1;jettySize=auto;html=1;labelBackgroundColor=default;strokeColor=#DB918D;strokeWidth=3;fontFamily=Helvetica;fontSize=12;fontColor=#FFFFFF;endArrow=openThin;fillColor=#ffffff;arcSize=50;fontStyle=0;startArrow=none;startFill=0;endFill=0;" parent="trYssVs36Saq6DxaFjGx-107" source="trYssVs36Saq6DxaFjGx-70" target="trYssVs36Saq6DxaFjGx-68" edge="1">
          <mxGeometry relative="1" as="geometry">
            <Array as="points">
              <mxPoint x="485.0983606557377" y="28" />
              <mxPoint x="485.0983606557377" y="28" />
            </Array>
          </mxGeometry>
        </mxCell>
        <mxCell id="trYssVs36Saq6DxaFjGx-70" value="&lt;font style=&quot;font-size: 14px;&quot;&gt;Start&lt;/font&gt;" style="strokeWidth=3;html=1;shape=mxgraph.flowchart.start_2;whiteSpace=wrap;labelBackgroundColor=none;fillColor=none;strokeColor=#DB918D;fontColor=#FFFFFF;fontSize=12;fontStyle=0;rounded=1;arcSize=50;container=0;" parent="trYssVs36Saq6DxaFjGx-107" vertex="1">
          <mxGeometry x="412.22950819672127" y="10" width="41.63934426229508" height="40" as="geometry" />
        </mxCell>
        <mxCell id="trYssVs36Saq6DxaFjGx-74" value="&lt;font style=&quot;font-size: 12px;&quot;&gt;Data Req or&lt;br&gt;Locations&lt;br&gt;&lt;/font&gt;" style="strokeWidth=3;html=1;shape=mxgraph.flowchart.decision;whiteSpace=wrap;strokeColor=#DB918D;fontFamily=Helvetica;fontSize=12;fontColor=#FFFFFF;fillColor=none;rounded=1;arcSize=50;fontStyle=0;labelBackgroundColor=none;container=0;" parent="trYssVs36Saq6DxaFjGx-107" vertex="1">
          <mxGeometry x="626.6624590163934" y="70" width="124.91803278688523" height="60" as="geometry" />
        </mxCell>
        <mxCell id="trYssVs36Saq6DxaFjGx-65" style="edgeStyle=orthogonalEdgeStyle;shape=connector;curved=0;rounded=1;orthogonalLoop=1;jettySize=auto;html=1;labelBackgroundColor=default;strokeColor=#DB918D;strokeWidth=3;fontFamily=Helvetica;fontSize=12;fontColor=#FFFFFF;startArrow=none;startFill=0;endArrow=openThin;endFill=0;" parent="trYssVs36Saq6DxaFjGx-107" source="trYssVs36Saq6DxaFjGx-66" target="trYssVs36Saq6DxaFjGx-74" edge="1">
          <mxGeometry relative="1" as="geometry">
            <Array as="points">
              <mxPoint x="690" y="50" />
              <mxPoint x="690" y="50" />
            </Array>
          </mxGeometry>
        </mxCell>
        <mxCell id="trYssVs36Saq6DxaFjGx-76" value="&lt;font style=&quot;font-size: 14px;&quot;&gt;Parse Child Location&lt;br style=&quot;&quot;&gt;Information,&lt;br style=&quot;&quot;&gt;append to &lt;br style=&quot;&quot;&gt;parent&lt;/font&gt;" style="rounded=1;whiteSpace=wrap;html=1;absoluteArcSize=1;arcSize=50;strokeWidth=3;strokeColor=#DB918D;fontFamily=Helvetica;fontSize=15;fontColor=#FFFFFF;fillColor=none;fontStyle=0;labelBackgroundColor=none;container=0;" parent="trYssVs36Saq6DxaFjGx-107" vertex="1">
          <mxGeometry x="803.95" y="57.5" width="160" height="85" as="geometry" />
        </mxCell>
        <mxCell id="trYssVs36Saq6DxaFjGx-73" style="edgeStyle=orthogonalEdgeStyle;shape=connector;curved=0;rounded=1;orthogonalLoop=1;jettySize=auto;html=1;labelBackgroundColor=default;strokeColor=#DB918D;strokeWidth=3;fontFamily=Helvetica;fontSize=12;fontColor=#FFFFFF;startArrow=none;startFill=0;endArrow=openThin;endFill=0;" parent="trYssVs36Saq6DxaFjGx-107" source="trYssVs36Saq6DxaFjGx-74" target="trYssVs36Saq6DxaFjGx-76" edge="1">
          <mxGeometry relative="1" as="geometry" />
        </mxCell>
        <mxCell id="trYssVs36Saq6DxaFjGx-78" style="edgeStyle=orthogonalEdgeStyle;shape=connector;curved=0;rounded=1;orthogonalLoop=1;jettySize=auto;html=1;entryX=1.017;entryY=0.5;entryDx=0;entryDy=0;labelBackgroundColor=default;strokeColor=#DB918D;strokeWidth=3;fontFamily=Helvetica;fontSize=12;fontColor=#FFFFFF;startArrow=none;startFill=0;endArrow=openThin;endFill=0;exitX=0.5;exitY=0;exitDx=0;exitDy=0;exitPerimeter=0;entryPerimeter=0;" parent="trYssVs36Saq6DxaFjGx-107" source="trYssVs36Saq6DxaFjGx-79" target="trYssVs36Saq6DxaFjGx-66" edge="1">
          <mxGeometry relative="1" as="geometry">
            <mxPoint x="976" y="140" as="sourcePoint" />
            <Array as="points">
              <mxPoint x="889" y="170" />
              <mxPoint x="980" y="170" />
              <mxPoint x="980" y="30" />
            </Array>
          </mxGeometry>
        </mxCell>
        <mxCell id="trYssVs36Saq6DxaFjGx-79" value="Locations &lt;br&gt;left to parse" style="strokeWidth=3;html=1;shape=mxgraph.flowchart.decision;whiteSpace=wrap;strokeColor=#DB918D;fontFamily=Helvetica;fontSize=12;fontColor=#FFFFFF;fillColor=none;rounded=1;arcSize=50;fontStyle=0;labelBackgroundColor=none;spacingTop=-2;container=0;" parent="trYssVs36Saq6DxaFjGx-107" vertex="1">
          <mxGeometry x="826.0026229508196" y="180" width="124.91803278688523" height="60" as="geometry" />
        </mxCell>
        <mxCell id="trYssVs36Saq6DxaFjGx-75" style="edgeStyle=orthogonalEdgeStyle;shape=connector;curved=0;rounded=1;orthogonalLoop=1;jettySize=auto;html=1;entryX=0;entryY=0.5;entryDx=0;entryDy=0;entryPerimeter=0;labelBackgroundColor=default;strokeColor=#DB918D;strokeWidth=3;fontFamily=Helvetica;fontSize=12;fontColor=#FFFFFF;startArrow=none;startFill=0;endArrow=openThin;endFill=0;" parent="trYssVs36Saq6DxaFjGx-107" source="trYssVs36Saq6DxaFjGx-76" target="trYssVs36Saq6DxaFjGx-79" edge="1">
          <mxGeometry relative="1" as="geometry">
            <Array as="points">
              <mxPoint x="866" y="157" />
              <mxPoint x="790" y="157" />
              <mxPoint x="790" y="210" />
            </Array>
          </mxGeometry>
        </mxCell>
        <mxCell id="trYssVs36Saq6DxaFjGx-80" value="Error, invalid config" style="strokeWidth=3;html=1;shape=mxgraph.flowchart.terminator;whiteSpace=wrap;strokeColor=#DB918D;fontFamily=Helvetica;fontSize=15;fontColor=#FFFFFF;fillColor=none;rounded=1;arcSize=50;fontStyle=0;labelBackgroundColor=none;container=0;" parent="trYssVs36Saq6DxaFjGx-107" vertex="1">
          <mxGeometry x="488.01" y="80" width="98.27" height="40" as="geometry" />
        </mxCell>
        <mxCell id="trYssVs36Saq6DxaFjGx-67" style="edgeStyle=orthogonalEdgeStyle;shape=connector;rounded=1;orthogonalLoop=1;jettySize=auto;html=1;labelBackgroundColor=default;strokeColor=#DB918D;strokeWidth=3;fontFamily=Helvetica;fontSize=12;fontColor=#FFFFFF;endArrow=openThin;fillColor=#ffffff;startArrow=none;startFill=0;endFill=0;" parent="trYssVs36Saq6DxaFjGx-107" source="trYssVs36Saq6DxaFjGx-68" target="trYssVs36Saq6DxaFjGx-80" edge="1">
          <mxGeometry relative="1" as="geometry">
            <Array as="points" />
          </mxGeometry>
        </mxCell>
        <mxCell id="trYssVs36Saq6DxaFjGx-71" style="edgeStyle=orthogonalEdgeStyle;shape=connector;curved=0;rounded=1;orthogonalLoop=1;jettySize=auto;html=1;labelBackgroundColor=default;strokeColor=#DB918D;strokeWidth=3;fontFamily=Helvetica;fontSize=12;fontColor=#FFFFFF;startArrow=none;startFill=0;endArrow=openThin;endFill=0;" parent="trYssVs36Saq6DxaFjGx-107" source="trYssVs36Saq6DxaFjGx-74" target="trYssVs36Saq6DxaFjGx-80" edge="1">
          <mxGeometry relative="1" as="geometry" />
        </mxCell>
        <mxCell id="trYssVs36Saq6DxaFjGx-82" value="Yes" style="edgeLabel;html=1;align=center;verticalAlign=middle;resizable=0;points=[];fontSize=12;fontFamily=Helvetica;fontColor=#FFFFFF;labelBackgroundColor=none;fillColor=#ffffff;strokeColor=#666666;rounded=1;arcSize=50;strokeWidth=3;fontStyle=0;container=0;" parent="trYssVs36Saq6DxaFjGx-107" vertex="1" connectable="0">
          <mxGeometry x="900.0001912568305" y="170" as="geometry">
            <mxPoint x="1" y="-13" as="offset" />
          </mxGeometry>
        </mxCell>
        <mxCell id="trYssVs36Saq6DxaFjGx-83" value="No" style="edgeLabel;html=1;align=center;verticalAlign=middle;resizable=0;points=[];fontSize=12;fontFamily=Helvetica;fontColor=#FFFFFF;labelBackgroundColor=none;fillColor=#ffffff;strokeColor=#666666;rounded=1;arcSize=50;strokeWidth=3;fontStyle=0;container=0;" parent="trYssVs36Saq6DxaFjGx-107" vertex="1" connectable="0">
          <mxGeometry x="963.9542896174863" y="184" as="geometry">
            <mxPoint x="-4" y="15" as="offset" />
          </mxGeometry>
        </mxCell>
        <mxCell id="trYssVs36Saq6DxaFjGx-84" value="Locations" style="edgeLabel;html=1;align=center;verticalAlign=middle;resizable=0;points=[];fontSize=12;fontFamily=Helvetica;fontColor=#FFFFFF;labelBackgroundColor=none;fillColor=#ffffff;strokeColor=#666666;rounded=1;arcSize=50;strokeWidth=3;fontStyle=0;container=0;" parent="trYssVs36Saq6DxaFjGx-107" vertex="1" connectable="0">
          <mxGeometry x="740.0039617486339" y="90" as="geometry">
            <mxPoint x="32" y="-5" as="offset" />
          </mxGeometry>
        </mxCell>
        <mxCell id="trYssVs36Saq6DxaFjGx-85" value="Yes" style="edgeLabel;html=1;align=center;verticalAlign=middle;resizable=0;points=[];fontSize=12;fontFamily=Helvetica;fontColor=#FFFFFF;labelBackgroundColor=none;fillColor=#ffffff;strokeColor=#666666;rounded=1;arcSize=50;strokeWidth=3;fontStyle=0;container=0;" parent="trYssVs36Saq6DxaFjGx-107" vertex="1" connectable="0">
          <mxGeometry x="589.2001912568305" y="10" as="geometry">
            <mxPoint x="-4" y="-1" as="offset" />
          </mxGeometry>
        </mxCell>
        <mxCell id="trYssVs36Saq6DxaFjGx-86" value="None, or both" style="text;html=1;strokeColor=none;fillColor=none;align=center;verticalAlign=middle;whiteSpace=wrap;rounded=0;fontSize=12;fontFamily=Helvetica;fontColor=#FFFFFF;container=0;" parent="trYssVs36Saq6DxaFjGx-107" vertex="1">
          <mxGeometry x="586.28" y="70" width="62.45901639344262" height="30" as="geometry" />
        </mxCell>
        <mxCell id="trYssVs36Saq6DxaFjGx-87" style="edgeStyle=orthogonalEdgeStyle;shape=connector;curved=0;rounded=1;orthogonalLoop=1;jettySize=auto;html=1;entryX=0;entryY=0.5;entryDx=0;entryDy=0;entryPerimeter=0;labelBackgroundColor=default;strokeColor=#DB918D;strokeWidth=3;fontFamily=Helvetica;fontSize=12;fontColor=#FFFFFF;startArrow=none;startFill=0;endArrow=openThin;endFill=0;" parent="trYssVs36Saq6DxaFjGx-107" source="trYssVs36Saq6DxaFjGx-88" target="trYssVs36Saq6DxaFjGx-79" edge="1">
          <mxGeometry relative="1" as="geometry" />
        </mxCell>
        <mxCell id="trYssVs36Saq6DxaFjGx-88" value="&lt;font style=&quot;font-size: 14px;&quot;&gt;Parse Data&lt;br style=&quot;&quot;&gt;Requirement&lt;br style=&quot;&quot;&gt;Information,&lt;br style=&quot;&quot;&gt;append to &lt;br style=&quot;&quot;&gt;Location&lt;/font&gt;" style="rounded=1;whiteSpace=wrap;html=1;absoluteArcSize=1;arcSize=50;strokeWidth=3;strokeColor=#DB918D;fontFamily=Helvetica;fontSize=15;fontColor=#FFFFFF;fillColor=none;fontStyle=0;labelBackgroundColor=none;container=0;" parent="trYssVs36Saq6DxaFjGx-107" vertex="1">
          <mxGeometry x="612.62" y="161" width="153" height="97" as="geometry" />
        </mxCell>
        <mxCell id="trYssVs36Saq6DxaFjGx-72" style="edgeStyle=orthogonalEdgeStyle;shape=connector;curved=0;rounded=1;orthogonalLoop=1;jettySize=auto;html=1;exitX=0.5;exitY=1;exitDx=0;exitDy=0;exitPerimeter=0;labelBackgroundColor=default;strokeColor=#DB918D;strokeWidth=3;fontFamily=Helvetica;fontSize=12;fontColor=#FFFFFF;startArrow=none;startFill=0;endArrow=openThin;endFill=0;" parent="trYssVs36Saq6DxaFjGx-107" source="trYssVs36Saq6DxaFjGx-74" target="trYssVs36Saq6DxaFjGx-88" edge="1">
          <mxGeometry relative="1" as="geometry" />
        </mxCell>
        <mxCell id="trYssVs36Saq6DxaFjGx-89" value="Data&lt;br&gt;Requirement" style="edgeLabel;html=1;align=right;verticalAlign=middle;resizable=0;points=[];fontSize=12;fontFamily=Helvetica;fontColor=#FFFFFF;labelBackgroundColor=none;fillColor=#ffffff;strokeColor=#666666;rounded=1;arcSize=50;strokeWidth=3;fontStyle=0;container=0;" parent="trYssVs36Saq6DxaFjGx-107" vertex="1" connectable="0">
          <mxGeometry x="669.9960928961748" y="140" as="geometry">
            <mxPoint x="-4" y="-1" as="offset" />
          </mxGeometry>
        </mxCell>
        <mxCell id="trYssVs36Saq6DxaFjGx-90" value="No" style="edgeLabel;html=1;align=center;verticalAlign=middle;resizable=0;points=[];fontSize=12;fontFamily=Helvetica;fontColor=#FFFFFF;labelBackgroundColor=none;fillColor=#ffffff;strokeColor=#666666;rounded=1;arcSize=50;strokeWidth=3;fontStyle=0;container=0;" parent="trYssVs36Saq6DxaFjGx-107" vertex="1" connectable="0">
          <mxGeometry x="521.536256830601" y="62" as="geometry">
            <mxPoint x="-4" y="-1" as="offset" />
          </mxGeometry>
        </mxCell>
        <mxCell id="trYssVs36Saq6DxaFjGx-100" style="edgeStyle=orthogonalEdgeStyle;shape=connector;curved=0;rounded=1;orthogonalLoop=1;jettySize=auto;html=1;labelBackgroundColor=default;strokeColor=#DB918D;strokeWidth=3;align=center;verticalAlign=middle;fontFamily=Helvetica;fontSize=12;fontColor=#FFFFFF;startArrow=none;startFill=0;endArrow=openThin;endFill=0;dashed=1;" parent="trYssVs36Saq6DxaFjGx-107" source="trYssVs36Saq6DxaFjGx-88" target="trYssVs36Saq6DxaFjGx-2" edge="1">
          <mxGeometry relative="1" as="geometry">
            <mxPoint x="526.7377049180327" y="250" as="targetPoint" />
          </mxGeometry>
        </mxCell>
        <mxCell id="trYssVs36Saq6DxaFjGx-101" style="edgeStyle=orthogonalEdgeStyle;shape=connector;curved=0;rounded=1;orthogonalLoop=1;jettySize=auto;html=1;labelBackgroundColor=default;strokeColor=#DB918D;strokeWidth=3;align=center;verticalAlign=middle;fontFamily=Helvetica;fontSize=12;fontColor=#FFFFFF;startArrow=none;startFill=0;endArrow=openThin;endFill=0;dashed=1;" parent="trYssVs36Saq6DxaFjGx-107" source="lI_EmPgApQuugRqTcfI--2" target="trYssVs36Saq6DxaFjGx-70" edge="1">
          <mxGeometry relative="1" as="geometry">
            <mxPoint x="433.04918032786884" y="1.1368683772161603e-13" as="targetPoint" />
          </mxGeometry>
        </mxCell>
        <mxCell id="trYssVs36Saq6DxaFjGx-105" value="" style="group;flipH=1;flipV=1;" parent="trYssVs36Saq6DxaFjGx-107" vertex="1" connectable="0">
          <mxGeometry y="5" width="385.1639344262295" height="113" as="geometry" />
        </mxCell>
        <mxCell id="lI_EmPgApQuugRqTcfI--1" value="Start" style="strokeWidth=3;html=1;shape=mxgraph.flowchart.start_2;whiteSpace=wrap;labelBackgroundColor=none;fillColor=none;strokeColor=#DB918D;fontColor=#FFFFFF;fontSize=14;fontStyle=0;rounded=1;arcSize=50;container=0;" parent="trYssVs36Saq6DxaFjGx-105" vertex="1">
          <mxGeometry y="63" width="52.04918032786885" height="50" as="geometry" />
        </mxCell>
        <mxCell id="lI_EmPgApQuugRqTcfI--2" value="Parse Locations" style="rounded=1;whiteSpace=wrap;html=1;absoluteArcSize=1;arcSize=50;strokeWidth=3;strokeColor=#DB918D;fontFamily=Helvetica;fontSize=15;fontColor=#FFFFFF;fillColor=none;fontStyle=0;labelBackgroundColor=none;container=0;" parent="trYssVs36Saq6DxaFjGx-105" vertex="1">
          <mxGeometry x="247.23360655737704" y="5" width="130.12295081967213" height="40" as="geometry" />
        </mxCell>
        <mxCell id="nUKhyI13u18EGrhSwZpv-35" value="" style="edgeStyle=orthogonalEdgeStyle;shape=connector;curved=0;rounded=1;orthogonalLoop=1;jettySize=auto;html=1;labelBackgroundColor=default;strokeColor=#DB918D;strokeWidth=3;fontFamily=Helvetica;fontSize=11;fontColor=#FFFFFF;startArrow=none;startFill=0;endArrow=openThin;endFill=0;" parent="trYssVs36Saq6DxaFjGx-105" source="lI_EmPgApQuugRqTcfI--3" target="lI_EmPgApQuugRqTcfI--2" edge="1">
          <mxGeometry relative="1" as="geometry" />
        </mxCell>
        <mxCell id="lI_EmPgApQuugRqTcfI--3" value="Parse Application Information" style="rounded=1;whiteSpace=wrap;html=1;absoluteArcSize=1;arcSize=50;strokeWidth=3;strokeColor=#DB918D;fontFamily=Helvetica;fontSize=15;fontColor=#FFFFFF;fillColor=none;fontStyle=0;labelBackgroundColor=none;container=0;" parent="trYssVs36Saq6DxaFjGx-105" vertex="1">
          <mxGeometry x="239.4262295081967" y="68" width="145.7377049180328" height="40" as="geometry" />
        </mxCell>
        <mxCell id="nUKhyI13u18EGrhSwZpv-30" value="" style="edgeStyle=orthogonalEdgeStyle;shape=connector;curved=0;rounded=1;orthogonalLoop=1;jettySize=auto;html=1;labelBackgroundColor=default;strokeColor=#DB918D;strokeWidth=3;fontFamily=Helvetica;fontSize=11;fontColor=#FFFFFF;startArrow=none;startFill=0;endArrow=openThin;endFill=0;" parent="trYssVs36Saq6DxaFjGx-105" source="lI_EmPgApQuugRqTcfI--5" target="lI_EmPgApQuugRqTcfI--3" edge="1">
          <mxGeometry relative="1" as="geometry" />
        </mxCell>
        <mxCell id="lI_EmPgApQuugRqTcfI--5" value="Load YAML file" style="rounded=1;whiteSpace=wrap;html=1;absoluteArcSize=1;arcSize=50;strokeWidth=3;strokeColor=#DB918D;fontFamily=Helvetica;fontSize=15;fontColor=#FFFFFF;fillColor=none;fontStyle=0;labelBackgroundColor=none;container=0;" parent="trYssVs36Saq6DxaFjGx-105" vertex="1">
          <mxGeometry x="98.89344262295081" y="68" width="104.0983606557377" height="40" as="geometry" />
        </mxCell>
        <mxCell id="nUKhyI13u18EGrhSwZpv-29" value="" style="edgeStyle=orthogonalEdgeStyle;shape=connector;curved=0;rounded=1;orthogonalLoop=1;jettySize=auto;html=1;labelBackgroundColor=default;strokeColor=#DB918D;strokeWidth=3;fontFamily=Helvetica;fontSize=11;fontColor=#FFFFFF;startArrow=none;startFill=0;endArrow=openThin;endFill=0;" parent="trYssVs36Saq6DxaFjGx-105" source="lI_EmPgApQuugRqTcfI--1" target="lI_EmPgApQuugRqTcfI--5" edge="1">
          <mxGeometry relative="1" as="geometry" />
        </mxCell>
        <mxCell id="lI_EmPgApQuugRqTcfI--32" value="Report success or failure" style="rounded=1;whiteSpace=wrap;html=1;absoluteArcSize=1;arcSize=50;strokeWidth=3;strokeColor=#DB918D;fontFamily=Helvetica;fontSize=15;fontColor=#FFFFFF;fillColor=none;fontStyle=0;labelBackgroundColor=none;container=0;" parent="trYssVs36Saq6DxaFjGx-105" vertex="1">
          <mxGeometry x="83.27868852459017" y="5" width="135.327868852459" height="40" as="geometry" />
        </mxCell>
        <mxCell id="nUKhyI13u18EGrhSwZpv-39" style="edgeStyle=orthogonalEdgeStyle;shape=connector;curved=0;rounded=1;orthogonalLoop=1;jettySize=auto;html=1;labelBackgroundColor=default;strokeColor=#DB918D;strokeWidth=3;fontFamily=Helvetica;fontSize=11;fontColor=#FFFFFF;startArrow=none;startFill=0;endArrow=openThin;endFill=0;" parent="trYssVs36Saq6DxaFjGx-105" source="lI_EmPgApQuugRqTcfI--2" target="lI_EmPgApQuugRqTcfI--32" edge="1">
          <mxGeometry relative="1" as="geometry" />
        </mxCell>
        <mxCell id="nUKhyI13u18EGrhSwZpv-21" value="End" style="strokeWidth=3;html=1;shape=mxgraph.flowchart.start_2;whiteSpace=wrap;labelBackgroundColor=none;fillColor=none;strokeColor=#DB918D;fontColor=#FFFFFF;fontSize=14;fontStyle=0;rounded=1;arcSize=50;container=0;" parent="trYssVs36Saq6DxaFjGx-105" vertex="1">
          <mxGeometry width="52.04918032786885" height="50" as="geometry" />
        </mxCell>
        <mxCell id="nUKhyI13u18EGrhSwZpv-40" style="edgeStyle=orthogonalEdgeStyle;shape=connector;curved=0;rounded=1;orthogonalLoop=1;jettySize=auto;html=1;labelBackgroundColor=default;strokeColor=#DB918D;strokeWidth=3;fontFamily=Helvetica;fontSize=11;fontColor=#FFFFFF;startArrow=none;startFill=0;endArrow=openThin;endFill=0;" parent="trYssVs36Saq6DxaFjGx-105" source="lI_EmPgApQuugRqTcfI--32" target="nUKhyI13u18EGrhSwZpv-21" edge="1">
          <mxGeometry relative="1" as="geometry" />
        </mxCell>
        <mxCell id="trYssVs36Saq6DxaFjGx-106" value="" style="group;flipH=1;" parent="trYssVs36Saq6DxaFjGx-107" vertex="1" connectable="0">
          <mxGeometry x="6.245901639344262" y="140" width="498.6311475409836" height="97" as="geometry" />
        </mxCell>
        <mxCell id="trYssVs36Saq6DxaFjGx-2" value="Start" style="strokeWidth=3;html=1;shape=mxgraph.flowchart.start_2;whiteSpace=wrap;labelBackgroundColor=none;fillColor=none;strokeColor=#DB918D;fontColor=#FFFFFF;fontSize=14;fontStyle=0;rounded=1;arcSize=50;container=0;flipV=0;" parent="trYssVs36Saq6DxaFjGx-106" vertex="1">
          <mxGeometry x="456.9918032786885" width="41.63934426229508" height="40" as="geometry" />
        </mxCell>
        <mxCell id="trYssVs36Saq6DxaFjGx-5" value="Get required or&lt;br style=&quot;font-size: 15px;&quot;&gt;optional" style="rounded=1;whiteSpace=wrap;html=1;absoluteArcSize=1;arcSize=50;strokeWidth=3;strokeColor=#DB918D;fontFamily=Helvetica;fontSize=15;fontColor=#FFFFFF;fillColor=none;fontStyle=0;labelBackgroundColor=none;container=0;flipV=0;" parent="trYssVs36Saq6DxaFjGx-106" vertex="1">
          <mxGeometry width="124.91803278688523" height="40" as="geometry" />
        </mxCell>
        <mxCell id="trYssVs36Saq6DxaFjGx-6" style="edgeStyle=orthogonalEdgeStyle;shape=connector;curved=0;rounded=1;orthogonalLoop=1;jettySize=auto;html=1;labelBackgroundColor=default;strokeColor=#DB918D;strokeWidth=3;fontFamily=Helvetica;fontSize=12;fontColor=#FFFFFF;startArrow=none;startFill=0;endArrow=openThin;endFill=0;" parent="trYssVs36Saq6DxaFjGx-106" source="trYssVs36Saq6DxaFjGx-7" target="trYssVs36Saq6DxaFjGx-5" edge="1">
          <mxGeometry relative="1" as="geometry" />
        </mxCell>
        <mxCell id="trYssVs36Saq6DxaFjGx-7" value="Validate &lt;br style=&quot;font-size: 15px;&quot;&gt;IoTOutput" style="rounded=1;whiteSpace=wrap;html=1;absoluteArcSize=1;arcSize=50;strokeWidth=3;strokeColor=#DB918D;fontFamily=Helvetica;fontSize=15;fontColor=#FFFFFF;fillColor=none;fontStyle=0;labelBackgroundColor=none;container=0;flipV=0;flipH=1;" parent="trYssVs36Saq6DxaFjGx-106" vertex="1">
          <mxGeometry x="151.98360655737704" width="114.50819672131146" height="40" as="geometry" />
        </mxCell>
        <mxCell id="trYssVs36Saq6DxaFjGx-10" value="Get count, if none &lt;br style=&quot;font-size: 15px;&quot;&gt;set to null" style="rounded=1;whiteSpace=wrap;html=1;absoluteArcSize=1;arcSize=50;strokeWidth=3;strokeColor=#DB918D;fontFamily=Helvetica;fontSize=15;fontColor=#FFFFFF;fillColor=none;fontStyle=0;labelBackgroundColor=none;container=0;flipV=0;" parent="trYssVs36Saq6DxaFjGx-106" vertex="1">
          <mxGeometry x="240.98770491803276" y="57" width="144.1762295081967" height="40" as="geometry" />
        </mxCell>
        <mxCell id="trYssVs36Saq6DxaFjGx-11" style="edgeStyle=orthogonalEdgeStyle;shape=connector;curved=0;rounded=1;orthogonalLoop=1;jettySize=auto;html=1;labelBackgroundColor=default;strokeColor=#DB918D;strokeWidth=3;fontFamily=Helvetica;fontSize=12;fontColor=#FFFFFF;startArrow=none;startFill=0;endArrow=openThin;endFill=0;" parent="trYssVs36Saq6DxaFjGx-106" source="trYssVs36Saq6DxaFjGx-12" target="trYssVs36Saq6DxaFjGx-10" edge="1">
          <mxGeometry relative="1" as="geometry" />
        </mxCell>
        <mxCell id="trYssVs36Saq6DxaFjGx-12" value="Get timeout, if none &lt;br style=&quot;font-size: 15px;&quot;&gt;set to null" style="rounded=1;whiteSpace=wrap;html=1;absoluteArcSize=1;arcSize=50;strokeWidth=3;strokeColor=#DB918D;fontFamily=Helvetica;fontSize=15;fontColor=#FFFFFF;fillColor=none;fontStyle=0;labelBackgroundColor=none;container=0;flipV=0;" parent="trYssVs36Saq6DxaFjGx-106" vertex="1">
          <mxGeometry x="62.45901639344262" y="57" width="151.98360655737704" height="40" as="geometry" />
        </mxCell>
        <mxCell id="trYssVs36Saq6DxaFjGx-15" style="edgeStyle=orthogonalEdgeStyle;shape=connector;curved=0;rounded=1;orthogonalLoop=1;jettySize=auto;html=1;labelBackgroundColor=default;strokeColor=#DB918D;strokeWidth=3;fontFamily=Helvetica;fontSize=12;fontColor=#FFFFFF;startArrow=none;startFill=0;endArrow=openThin;endFill=0;entryX=0;entryY=0.5;entryDx=0;entryDy=0;exitX=0.341;exitY=1.014;exitDx=0;exitDy=0;exitPerimeter=0;" parent="trYssVs36Saq6DxaFjGx-106" source="trYssVs36Saq6DxaFjGx-5" target="trYssVs36Saq6DxaFjGx-12" edge="1">
          <mxGeometry relative="1" as="geometry" />
        </mxCell>
        <mxCell id="trYssVs36Saq6DxaFjGx-13" value="End" style="strokeWidth=3;html=1;shape=mxgraph.flowchart.start_2;whiteSpace=wrap;labelBackgroundColor=none;fillColor=none;strokeColor=#DB918D;fontColor=#FFFFFF;fontSize=14;fontStyle=0;rounded=1;arcSize=50;container=0;flipV=0;" parent="trYssVs36Saq6DxaFjGx-106" vertex="1">
          <mxGeometry x="415.3524590163934" y="57" width="41.63934426229508" height="40" as="geometry" />
        </mxCell>
        <mxCell id="trYssVs36Saq6DxaFjGx-14" style="edgeStyle=orthogonalEdgeStyle;shape=connector;curved=0;rounded=1;orthogonalLoop=1;jettySize=auto;html=1;labelBackgroundColor=default;strokeColor=#DB918D;strokeWidth=3;fontFamily=Helvetica;fontSize=12;fontColor=#FFFFFF;startArrow=none;startFill=0;endArrow=openThin;endFill=0;" parent="trYssVs36Saq6DxaFjGx-106" source="trYssVs36Saq6DxaFjGx-10" target="trYssVs36Saq6DxaFjGx-13" edge="1">
          <mxGeometry relative="1" as="geometry" />
        </mxCell>
        <mxCell id="trYssVs36Saq6DxaFjGx-3" value="Create empty array for components" style="rounded=1;whiteSpace=wrap;html=1;absoluteArcSize=1;arcSize=50;strokeWidth=3;strokeColor=#DB918D;fontFamily=Helvetica;fontSize=15;fontColor=#FFFFFF;fillColor=none;fontStyle=0;labelBackgroundColor=none;container=0;flipV=0;" parent="trYssVs36Saq6DxaFjGx-107" vertex="1">
          <mxGeometry x="297.72131147540983" y="140" width="143.655737704918" height="40" as="geometry" />
        </mxCell>
        <mxCell id="trYssVs36Saq6DxaFjGx-4" style="edgeStyle=orthogonalEdgeStyle;shape=connector;curved=0;rounded=1;orthogonalLoop=1;jettySize=auto;html=1;labelBackgroundColor=default;strokeColor=#DB918D;strokeWidth=3;fontFamily=Helvetica;fontSize=12;fontColor=#FFFFFF;startArrow=none;startFill=0;endArrow=openThin;endFill=0;" parent="trYssVs36Saq6DxaFjGx-107" source="trYssVs36Saq6DxaFjGx-2" target="trYssVs36Saq6DxaFjGx-3" edge="1">
          <mxGeometry relative="1" as="geometry" />
        </mxCell>
        <mxCell id="trYssVs36Saq6DxaFjGx-8" style="edgeStyle=orthogonalEdgeStyle;shape=connector;curved=0;rounded=1;orthogonalLoop=1;jettySize=auto;html=1;labelBackgroundColor=default;strokeColor=#DB918D;strokeWidth=3;fontFamily=Helvetica;fontSize=12;fontColor=#FFFFFF;startArrow=none;startFill=0;endArrow=openThin;endFill=0;" parent="trYssVs36Saq6DxaFjGx-107" source="trYssVs36Saq6DxaFjGx-3" target="trYssVs36Saq6DxaFjGx-7" edge="1">
          <mxGeometry relative="1" as="geometry" />
        </mxCell>
        <mxCell id="trYssVs36Saq6DxaFjGx-81" value="End" style="strokeWidth=3;html=1;shape=mxgraph.flowchart.start_2;whiteSpace=wrap;labelBackgroundColor=none;fillColor=none;strokeColor=#DB918D;fontColor=#FFFFFF;fontSize=14;fontStyle=0;rounded=1;arcSize=50;container=0;" parent="trYssVs36Saq6DxaFjGx-107" vertex="1">
          <mxGeometry x="976" y="189.5" width="40" height="40" as="geometry" />
        </mxCell>
        <mxCell id="trYssVs36Saq6DxaFjGx-77" style="edgeStyle=orthogonalEdgeStyle;shape=connector;rounded=1;orthogonalLoop=1;jettySize=auto;html=1;labelBackgroundColor=default;strokeColor=#DB918D;strokeWidth=3;fontFamily=Helvetica;fontSize=12;fontColor=#FFFFFF;endArrow=openThin;fillColor=#ffffff;arcSize=50;fontStyle=0;startArrow=none;startFill=0;endFill=0;" parent="trYssVs36Saq6DxaFjGx-107" source="trYssVs36Saq6DxaFjGx-79" target="trYssVs36Saq6DxaFjGx-81" edge="1">
          <mxGeometry relative="1" as="geometry">
            <Array as="points" />
            <mxPoint x="945" y="187" as="targetPoint" />
          </mxGeometry>
        </mxCell>
      </root>
    </mxGraphModel>
  </diagram>
</mxfile>
